<svg width="17" height="17" viewBox="0 0 17 17" fill="none" xmlns="http://www.w3.org/2000/svg">
<g clip-path="url(#clip0_346_14324)">
<path d="M14.7981 2.26972L12.7728 2.27501C11.8559 1.07052 10.4201 0.281142 8.79294 0.28539C7.16576 0.289638 5.73408 1.0865 4.82349 2.29576L2.79818 2.30105C1.69537 2.30393 0.800532 3.20345 0.803411 4.30626L0.829517 14.3062C0.832396 15.409 1.73192 16.3039 2.83473 16.301L14.8347 16.2697C15.9375 16.2668 16.8323 15.3673 16.8295 14.2645L16.8034 4.26449C16.8005 3.16168 15.901 2.26684 14.7981 2.26972ZM8.79555 1.28539C11.0046 1.27962 12.8002 3.06587 12.806 5.27493C12.8117 7.48398 11.0255 9.27959 8.81644 9.28536C6.60738 9.29113 4.81177 7.50487 4.80601 5.29581C4.80024 3.08676 6.5865 1.29115 8.79555 1.28539ZM15.8295 14.2671C15.8309 14.8193 15.3843 15.2682 14.8321 15.2697L2.83212 15.301C2.27994 15.3024 1.83096 14.8558 1.82951 14.3036L1.80341 4.30365C1.80197 3.75146 2.24861 3.30248 2.80079 3.30104L4.22454 3.29733C3.95677 3.91146 3.80415 4.58655 3.80601 5.29843C3.81321 8.05529 6.06218 10.2926 8.81905 10.2854C11.5759 10.2782 13.8132 8.02918 13.806 5.27232C13.8041 4.56045 13.648 3.88616 13.377 3.27343L14.8008 3.26972C15.3529 3.26827 15.8019 3.71492 15.8034 4.2671L15.8295 14.2671ZM8.81383 8.28536C9.64101 8.2832 10.3121 7.60864 10.3099 6.78145C10.3088 6.34645 10.1187 5.9582 9.82142 5.68491L10.7607 3.47714C10.8687 3.22342 10.7505 2.92966 10.4961 2.82158C10.2433 2.71349 9.94865 2.83144 9.84057 3.0861L8.90071 5.29481C7.7924 5.22552 7.30834 6.1846 7.30992 6.78928C7.31207 7.61647 7.98664 8.28752 8.81383 8.28536ZM8.8086 6.28537C9.08485 6.28465 9.30919 6.50781 9.30991 6.78406C9.31063 7.06031 9.08746 7.28464 8.81122 7.28537C8.53497 7.28609 8.31063 7.06292 8.30991 6.78667C8.30919 6.51042 8.53236 6.28609 8.8086 6.28537Z" fill="#212121"/>
</g>
<defs>
<clipPath id="clip0_346_14324">
<rect width="16" height="16" fill="white" transform="translate(0.792969 0.306274) rotate(-0.149576)"/>
</clipPath>
</defs>
</svg>
