<svg width="9" height="17" viewBox="0 0 9 17" fill="none" xmlns="http://www.w3.org/2000/svg">
<g clip-path="url(#clip0_346_14331)">
<path d="M7.7927 0.0191098L1.79272 0.0347734C1.24054 0.036215 0.793894 0.485195 0.795335 1.03738L0.831884 15.0373C0.833325 15.5895 1.28231 16.0362 1.83449 16.0347L7.83447 16.0191C8.38666 16.0176 8.8333 15.5686 8.83186 15.0164L8.79531 1.0165C8.79387 0.46431 8.34489 0.0176683 7.7927 0.0191098ZM1.83188 15.0347L1.79533 1.03477L7.79531 1.01911L7.80053 3.0191L6.05054 3.02367C5.91241 3.02403 5.80083 3.1362 5.80119 3.27432L5.8025 3.77432C5.80286 3.91244 5.91502 4.02403 6.05315 4.02366L7.80314 4.0191L7.80836 6.01909L6.05837 6.02366C5.92025 6.02402 5.80866 6.13618 5.80902 6.27431L5.81033 6.77431C5.81069 6.91243 5.92286 7.02401 6.06098 7.02365L7.81097 7.01909L7.8162 9.01908L6.0662 9.02365C5.92808 9.02401 5.81649 9.13617 5.81686 9.2743L5.81816 9.7743C5.81852 9.91242 5.93069 10.024 6.06881 10.0236L7.81881 10.0191L7.82403 12.0191L6.07403 12.0236C5.93591 12.024 5.82433 12.1362 5.82469 12.2743L5.82599 12.7743C5.82635 12.9124 5.93852 13.024 6.07664 13.0236L7.82664 13.0191L7.83186 15.0191L1.83188 15.0347Z" fill="#212121"/>
</g>
<defs>
<clipPath id="clip0_346_14331">
<rect width="8" height="16" fill="white" transform="translate(0.792725 0.037384) rotate(-0.149576)"/>
</clipPath>
</defs>
</svg>
